<?xml version="1.0" standalone="no"?>
<!DOCTYPE svg PUBLIC "-//W3C//DTD SVG 20010904//EN"
 "http://www.w3.org/TR/2001/REC-SVG-20010904/DTD/svg10.dtd">
<svg version="1.0" xmlns="http://www.w3.org/2000/svg"
 width="512.000000pt" height="512.000000pt" viewBox="0 0 512.000000 512.000000"
 preserveAspectRatio="xMidYMid meet">
<metadata>
Created by potrace 1.14, written by Peter Selinger 2001-2017
</metadata>
<g transform="translate(0.000000,512.000000) scale(0.100000,-0.100000)"
fill="#000000" stroke="none">
<path d="M1267 4534 c-1 -1 -69 -4 -152 -7 -308 -13 -333 -26 -346 -184 -7
-95 -3 -2297 5 -2498 2 -55 7 -233 10 -395 7 -314 13 -487 22 -560 5 -42 14
-54 127 -168 132 -133 139 -137 262 -148 137 -12 641 -5 810 11 17 1 64 5 105
9 133 12 144 17 147 56 2 19 6 287 9 595 4 308 8 562 11 565 5 5 596 0 602 -5
2 -3 5 -64 6 -137 2 -73 6 -270 10 -438 3 -168 8 -314 10 -325 2 -11 4 -26 4
-32 2 -23 251 -261 279 -267 58 -13 78 -16 171 -23 121 -10 707 -10 781 -1
126 17 169 32 194 71 15 22 21 89 31 319 23 553 23 3007 -1 3168 -9 63 -15 71
-138 195 l-123 123 -69 8 c-89 10 -679 11 -849 2 -112 -7 -254 -24 -262 -32
-3 -3 -11 -91 -17 -191 -8 -124 -21 -638 -25 -1042 l-1 -51 -310 1 -310 2 -1
40 c-1 22 -2 96 -4 165 -13 563 -20 764 -30 838 -2 15 -4 30 -4 34 -2 15 -247
255 -266 261 -11 4 -40 9 -65 12 -25 3 -63 7 -85 10 -54 6 -532 23 -538 19z
m478 -118 c17 -2 60 -7 98 -11 l67 -7 1 -41 c0 -23 2 -73 4 -112 7 -147 23
-842 24 -1067 l1 -128 523 0 523 0 3 313 c3 329 6 492 16 774 8 220 5 206 46
215 103 21 865 29 960 9 28 -6 33 -11 35 -36 26 -384 16 -3037 -12 -3334 -6
-67 -6 -67 -46 -75 -148 -32 -941 -27 -973 6 -9 9 -15 162 -20 493 -5 306 -13
679 -15 707 0 3 -143 7 -317 8 -175 1 -407 3 -515 5 l-198 2 -1 -351 c0 -354
-7 -858 -12 -862 -4 -3 -86 -13 -182 -21 -100 -9 -830 -11 -839 -3 -11 11 -15
68 -21 292 -4 128 -8 280 -10 338 -16 513 -27 2454 -15 2744 5 137 -1 130 128
144 74 9 685 7 747 -2z m352 -196 c26 -27 33 -43 34 -75 1 -22 2 -67 4 -100 4
-95 16 -544 20 -727 l3 -168 -59 0 -59 0 -1 83 c-1 225 -18 938 -24 1016 l-4
54 26 -24 c15 -13 41 -40 60 -59z m2140 -38 c13 -13 25 -39 28 -60 28 -217 20
-3000 -10 -3342 -1 -19 -3 -45 -4 -57 -1 -18 -11 -23 -73 -34 -118 -22 -808
-17 -927 6 -32 6 -53 21 -99 68 l-44 44 69 -6 c102 -9 688 -7 763 3 36 4 88
17 117 28 61 22 70 40 78 163 24 350 37 2240 21 2980 l-7 289 32 -29 c17 -17
42 -40 56 -53z m-1660 -2152 c214 -1 294 -4 300 -13 5 -7 8 -32 8 -57 l0 -45
-358 1 -357 0 -1 -410 c-1 -431 -7 -797 -13 -804 -2 -2 -21 -5 -43 -8 -21 -2
-63 -6 -93 -10 -91 -10 -832 -14 -872 -5 -22 5 -56 28 -89 59 l-53 51 270 1
c267 1 326 3 499 15 93 6 218 22 246 30 19 6 17 -50 24 630 4 303 8 555 10
561 2 8 40 10 117 8 62 -1 244 -3 405 -4z"/>
</g>
</svg>
