<?xml version="1.0" encoding="UTF-8"?>
<svg xmlns="http://www.w3.org/2000/svg" xmlns:xlink="http://www.w3.org/1999/xlink" version="1.1" width="512" height="512" x="0" y="0" viewBox="0 0 512 512" style="enable-background:new 0 0 512 512" xml:space="preserve" class="">
  <g>
    <path d="M469.077 437.043C444.08 339.868 356.46 272 256.002 272S67.924 339.868 42.927 437.042c-4.589 17.836-.588 37.174 10.701 51.728C64.913 503.316 82.645 512 101.063 512H410.94c18.68 0 35.962-8.468 47.414-23.232 11.299-14.564 15.308-33.9 10.723-51.725zM426.75 464.25c-3.82 4.925-9.583 7.75-15.81 7.75H101.063c-6.148 0-12.065-2.896-15.829-7.748-3.82-4.925-5.12-11.21-3.568-17.245C102.114 367.517 173.803 312 256.002 312s153.889 55.517 174.336 135.007c1.526 5.933.185 12.379-3.588 17.243zM256.002 240c66.168 0 120-53.832 120-120S322.17 0 256.002 0s-120 53.832-120 120 53.832 120 120 120zm0-200c44.112 0 80 35.888 80 80s-35.888 80-80 80-80-35.888-80-80 35.887-80 80-80z" fill="#6f6f6f" opacity="1" data-original="#000000" class=""/>
  </g>
</svg>
